<svg xmlns="http://www.w3.org/2000/svg" viewBox="0 0 647.6 632.2"><style>.st0{opacity:.4;fill:#82858b;enable-background:new}.st1{fill:#3f3d56}.st2{fill:#f1404b}.st3{fill:#fff}</style><path class="st0" d="M411.1 142.2H236.6c-8.3 0-15 6.7-15 15V545l-2 .6-42.8 13.1c-4.2 1.3-8.7-1.1-10-5.3l-127.3-416c-1.3-4.2 1.1-8.7 5.3-10l66-20.2L302 48.8l66-20.2c4.2-1.3 8.7 1.1 10 5.3l32.5 106.3.6 2z"/><path class="st1" d="M449.2 140.2L410 12C407.3 3 397.8-2 388.8.7L296 29.1 104.8 87.7 12 116.1C3 118.9-2 128.4.7 137.3l134.1 437.9c2.2 7.1 8.8 12 16.3 12 1.7 0 3.4-.3 5-.8l63.6-19.5 2-.6v-2.1l-2 .6-64.2 19.7c-7.9 2.4-16.3-2-18.7-10L2.7 136.7c-2.4-7.9 2-16.3 9.9-18.7l92.8-28.4 191.2-58.5 92.8-28.4c1.4-.4 2.9-.7 4.4-.7 6.6 0 12.4 4.3 14.3 10.6l39 127.6.6 2h2.1l-.6-2z"/><path class="st2" d="M122.7 127.8c-4 0-7.4-2.6-8.6-6.4l-12.9-42.1a8.86 8.86 0 0 1 6-11.2l175.9-53.9c4.8-1.5 9.8 1.2 11.2 6l12.9 42.1c1.4 4.8-1.2 9.8-6 11.2l-175.9 53.9c-.8.3-1.7.4-2.6.4z"/><circle class="st2" cx="190.2" cy="25" r="20"/><circle class="st3" cx="190.2" cy="25" r="12.7"/><path class="st0" d="M602.6 582.2h-338c-4.7 0-8.5-3.8-8.5-8.5v-405c0-4.7 3.8-8.5 8.5-8.5h338c4.7 0 8.5 3.8 8.5 8.5v405c0 4.7-3.8 8.5-8.5 8.5z"/><path class="st1" d="M447.1 140.2H236.6c-9.4 0-17 7.6-17 17V565l2-.6V157.2c0-8.3 6.7-15 15-15h211.1l-.6-2zm183.5 0h-394c-9.4 0-17 7.6-17 17v458c0 9.4 7.6 17 17 17h394c9.4 0 17-7.6 17-17v-458c0-9.4-7.6-17-17-17zm15 475c0 8.3-6.7 15-15 15h-394c-8.3 0-15-6.7-15-15v-458c0-8.3 6.7-15 15-15h394c8.3 0 15 6.7 15 15v458z"/><path class="st2" d="M525.6 184.2h-184c-5 0-9-4-9-9v-44c0-5 4-9 9-9h184c5 0 9 4 9 9v44c0 4.9-4 9-9 9z"/><circle class="st2" cx="433.6" cy="105.2" r="20"/><circle class="st3" cx="433.6" cy="105.2" r="12.2"/></svg>