<?xml version="1.0" encoding="utf-8"?>
<!-- Generator: Adobe Illustrator 23.0.3, SVG Export Plug-In . SVG Version: 6.00 Build 0)  -->
<svg version="1.1" id="Layer_1" xmlns="http://www.w3.org/2000/svg" xmlns:xlink="http://www.w3.org/1999/xlink" x="0px" y="0px"
	 viewBox="0 0 1200 1200" enable-background="new 0 0 1200 1200" xml:space="preserve">
<path fill="#202847" d="M694.901,344.048c15.459,0.447,37.07,0.763,51.484,0.918c1.275,60.214,2.232,124.319-4.777,165.256
	c-17.068-14.056-34.537-18.183-49.816-17.693C696.286,442.98,697.911,393.806,694.901,344.048z M745.671,325.51
	c-14.961-0.161-37.148-0.491-52.174-0.955c-3.728-43.797-11.191-88.144-23.611-133.698c-3.606-13.217-8.628-26.42-20.836-33.457
	c-10.398-5.994-19.029-3.972-24.442-1.232c-27.77,14.084-39.268,86.615-46.853,155.713c-0.104,0.954-0.199,1.823-0.296,2.699
	c-8.865-0.678-20.325-1.542-31.69-2.398c3.181-29.528,3.267-62.856-10.043-81.511c-4.13-5.788-9.285-9.914-15.348-12.408
	c-0.081-10.177-0.19-19.548-0.294-28.305c-0.506-42.604-0.85-90.349,3.392-138.831c47.422,3.683,97.189,16.307,129.4,39.173
	C735.924,149.253,741.189,240.893,745.671,325.51z M508.75,235.095c0.005,0.001,0.01,0.002,0.015,0.003
	c0.144,0.023,0.291,0.055,0.435,0.078c4.495,0.702,7.892,2.86,10.694,6.788c15.81,22.156,4.645,85.01,0.443,108.669l-1.024,5.819
	c-1.84,10.69-6.605,18.224-13.075,20.667c-6.137,2.326-14.026-0.018-22.174-6.594c-0.911-0.731-3.306-3.233-5.928-10.584
	c-11.513-32.356-8.28-102.437,9.889-122.512c4.597-5.08,8.474-4.963,11.656-4.169C502.685,233.998,505.733,234.608,508.75,235.095z
	 M305.204,173.528c29.218-60.93,78.463-108.139,138.673-119.319c17.575-3.268,38.32-4.654,60.163-4.085
	c-4.261,48.993-3.912,97.064-3.402,140.063c0.088,7.382,0.179,15.211,0.254,23.573c-10.154-1.383-19.746,2.284-27.285,10.619
	c-15.02,16.595-21.564,50.459-21.797,82.839c-59.709-4.847-119.046-2.434-176.728,0.355
	C279.5,265.947,287.577,210.292,305.204,173.528z M268.291,399.94c0.688-8.737,1.276-18.469,1.898-28.772
	c0.822-13.623,1.721-28.502,3.025-44.038c58.654-2.853,119.03-5.407,179.236-0.337c1.118,15.263,3.653,29.24,7.366,39.672h0.004
	c3.189,8.957,7.124,15.233,12.032,19.197c9.666,7.794,19.786,11.802,29.416,11.802c4.056,0,8.028-0.713,11.839-2.15
	c13.089-4.941,22.335-17.906,25.371-35.571l1.006-5.709c1.119-6.299,2.481-14.038,3.77-22.541
	c11.293,0.85,22.768,1.718,31.764,2.405c-1.559,11.45-3.109,22.917-4.648,34.465c-6.868,51.593-13.974,104.946-23.875,154.674
	c-10.266,51.553-21.669,95.905-34.872,135.59c-2.425,7.293-4.82,16.491-7.358,26.23c-5.475,21-12.662,48.58-22.759,64.112
	c-14.22-13.272-27.912-27.247-41.225-40.826c-29.138-29.734-59.274-60.481-95.894-84.999c-13.934-9.33-30.622-18.663-49.03-17.039
	c-4.837,0.423-8.842,1.368-12.213,2.702C268.059,543.681,262.769,470.215,268.291,399.94z M869.344,978.409
	c-38.273,69.485-101.497,162.83-208.151,171.219c-111.507,8.697-192.768-137.847-219.466-186.024
	c-23.377-42.183-43.719-86.992-63.392-130.327c-5.771-12.716-11.546-25.433-17.398-38.105c-13.291-28.768-27.861-59.57-44.348-89.87
	c-2.831-5.208-6.342-10.72-10.058-16.557c-10.24-16.081-21.849-34.309-21.015-49.136c0.214-3.77,0.523-6.478,1.116-8.451
	c0.14-0.333,0.261-0.669,0.363-1.016c1.449-3.511,4.248-4.158,10.059-4.669c12.285-1.086,24.829,6.009,36.511,13.828
	c34.956,23.403,63.066,52.087,92.826,82.453c15.843,16.165,32.224,32.883,49.596,48.55c3.778,3.405,9.531,3.332,13.214-0.176
	c17.189-16.348,26.055-50.361,33.877-80.369c2.454-9.417,4.773-18.316,6.996-24.997c13.459-40.461,25.067-85.577,35.487-137.931
	c10.025-50.339,17.171-104.006,24.083-155.903c1.979-14.871,3.953-29.686,5.987-44.374c0.369-2.67,0.845-6.996,1.456-12.555
	c11.729-106.84,26.223-135.371,36.317-140.487c1.207-0.607,2.758-1.097,5.932,0.731c6.415,3.698,9.45,13.155,11.787,21.728
	c28.701,105.277,30.713,201.804,20.743,302.846c-1.052,1.914-1.51,4.169-1.071,6.483c0.067,0.35,0.196,0.669,0.298,1.002
	c-5.219,50.085-13.261,101.346-22.388,155.405c-0.896,5.296,2.674,10.314,7.966,11.206c5.285,0.907,10.31-2.67,11.21-7.966
	c8.805-52.147,16.736-102.779,22-152.898c13.413-1.011,25.323,2.32,35.437,10.055c15.986,12.219,26.731,35.011,28.735,60.963
	c2.63,33.983,0.655,49.231-13.199,101.954c-1.364,5.193,1.737,10.511,6.931,11.875c0.83,0.219,1.66,0.322,2.48,0.322
	c4.308,0,8.251-2.889,9.396-7.252c13.686-52.065,16.732-70.256,13.784-108.398c-0.704-9.1-2.373-17.901-4.844-26.211
	c14.247-1.792,27.113,1.362,38.305,9.599c17.409,12.808,28.699,36.664,29.47,62.251c1.024,33.98-6.846,68.369-15.507,100.469
	c-1.397,5.182,1.671,10.518,6.857,11.919c0.849,0.227,1.697,0.336,2.538,0.336c4.286,0,8.211-2.856,9.381-7.194
	c9.048-33.541,17.266-69.613,16.165-106.116c-0.23-7.678-1.271-15.245-3.018-22.541c22.035,3.303,56.8,24.486,63.821,36.713
	l2.962,5.113c7.662,13.174,10.24,17.61,11.839,33.526C941.59,781.088,919.548,887.266,869.344,978.409z"/>
</svg>
