<?xml version="1.0" encoding="utf-8"?>
<!-- Designed by Vexels.com - 2020 All Rights Reserved - https://vexels.com/terms-and-conditions/  -->
<svg version="1.1" id="Layer_1" xmlns="http://www.w3.org/2000/svg" xmlns:xlink="http://www.w3.org/1999/xlink" x="0px" y="0px"
	 viewBox="0 0 1200 1200" enable-background="new 0 0 1200 1200" xml:space="preserve">
<g>
	<path fill="#03566D" d="M574.799,210.001c0.488-4.21,0.808-6.989,7.042-7.754c10.155-1.244,21.902-2.81,32.772-5.663
		c8.916-2.341,17.642-5.827,26.079-9.197l2.427-0.967c14.471-5.762,26.94-11.671,32.952-25.646
		c5.788-13.458,7.268-30.539,4.523-52.223c-1.852-14.615-5.769-32.764-19.735-43.47c-18.852-14.455-44.298-15.322-70.935-14.892
		l-0.094,0.235c-0.919-0.346-2.504-0.238-3.775-0.152c-0.404,0.026-0.784,0.053-1.128,0.065c-7.114,0.403-14.363,0.168-21.375-0.06
		c-4.508-0.146-9.125-0.296-13.725-0.274c-6.772,0.032-13.66,0.678-20.322,1.303c-5.594,0.523-11.377,1.066-17.098,1.247
		c-1.884,0.06-3.808,0.113-5.764,0.166c-24.108,0.656-54.111,1.471-72.114,19.193c-15.669,15.422-18.238,40.779-18.375,54.524
		c-0.168,17.045,5.298,32.608,16.242,46.259c4.908,6.118,10.261,12.342,16.982,15.337c5.892,2.63,12.873,3.626,19.626,4.59
		c1.261,0.18,2.507,0.358,3.729,0.546c6.221,0.948,12.618,1.629,18.804,2.286c2.702,0.286,5.406,0.575,8.1,0.883
		c0.727,0.084,1.86,0.144,3.19,0.217c7.946,0.428,11.923,0.965,13.037,2.858c1.119,1.901,0.71,5.473,0.349,8.625
		c-0.142,1.227-0.274,2.384-0.274,3.156l-0.01,5.966c-0.055,22.335-0.118,47.652,5.858,68.779
		c7.335,25.942,15.864,43.646,26.069,54.118c1.848,2.286,4.034,4.694,6.351,7.246c2.731,3.012,5.557,6.123,7.881,9.104l0.171,0.26
		c0.128,0.171,0.346,0.435,0.536,0.662c0.132,0.01,0.274,0.022,0.419,0.036c1.022,0.091,2.728,0.245,4.051,0.014
		c3.301-0.57,6.626-1.893,10.465-4.167c6.053-3.58,14.197-11.158,16.039-15.943c1.932-4.641,3.096-8.815,3.676-13.169
		c0.666-5.016,0.556-5.168-2.271-9.005c-4.754-6.455-8.206-14.372-11.334-21.926c-7.063-17.062-10.552-32.822-10.665-48.181
		l-0.019-2.545c-0.087-10.196-0.166-19.826,1.34-30.077C574.626,211.502,574.717,210.717,574.799,210.001z M603.955,114.89
		c4.453-15.515,18.866-20.624,30.344-18.81c11.514,1.82,22.884,10.818,22.335,26.814c-0.262,7.595-3.871,14.781-9.902,19.715
		c-4.884,3.996-10.903,6.14-16.992,6.14c-1.412,0-2.827-0.115-4.234-0.349c-7.504-1.246-14.213-5.8-18.414-12.493
		C603.062,129.486,601.919,121.826,603.955,114.89z M483.675,120.933v0.002c-0.729,8.728-5.627,16.667-13.102,21.236
		c-4.29,2.62-9.06,3.95-13.865,3.95c-3.409,0-6.835-0.669-10.116-2.021c-6.703-2.757-11.88-8.062-14.574-14.942
		c-2.673-6.823-2.473-14.473,0.546-20.993c6.395-13.798,20.988-17.004,31.855-14.134C474.114,96.59,484.974,105.171,483.675,120.933
		z"/>
	<path fill="#03566D" d="M457.555,100.824c-2.776,0-5.526,0.564-8.011,1.566c-8.209,3.307-14.666,11.778-10.595,23.244
		c2.35,6.628,7.148,10.903,13.501,12.031c7.056,1.261,14.885-1.622,19.482-7.157c4.227-5.093,5.139-11.651,2.565-18.472
		C470.857,103.999,464.137,100.824,457.555,100.824z"/>
	<path fill="#03566D" d="M627.389,140.432c7.333,0.541,14.938-3.101,18.922-9.096c3.529-5.305,3.703-11.685,0.488-17.964
		c-3.746-7.321-9.808-10.237-15.833-10.237c-2.897,0-5.784,0.674-8.403,1.855c-8.129,3.669-14.793,12.926-10.208,24.585
		C615.372,136.046,620.721,139.927,627.389,140.432z"/>
	<path fill="#03566D" d="M762.304,517.701c2.074,20.791,4.215,42.27,4.941,63.402c2.411-0.808,4.898-1.561,7.321-2.293
		c11.459-3.464,23.31-7.044,29.841-17.218l0.171-0.209c1.672-1.674-1.352-16.901-2.348-21.905c-0.467-2.35-0.835-4.205-0.945-5.139
		c-1.67-13.99-3.789-32.428-5.401-50.991c-2.411-27.809-5.093-60.604-6.729-92.996l-0.065-1.258l1.261-0.036
		c3.864-0.108,8.271-0.686,13.47-1.766c6.498-1.352,7.802-2.974,7.749-9.638c-0.099-12.104-1.138-21.424-5.995-30.477
		c-9.479-17.666-24.602-31.809-42.59-39.828c-31.913-14.23-65.656-22.09-109.415-25.492c-21.977-1.706-44.303-1.174-65.931-0.628
		c0.306,0.69,0.669,1.441,1.042,2.216c1.306,2.699,2.658,5.49,2.658,7.783c0.041,0.457,0.861,2.146,1.213,2.868
		c0.067,0.14,0.132,0.272,0.193,0.397l0.031-0.014c1.922,4.4,4.328,8.94,7.155,13.492c0.536,0.864,1.333,1.771,2.175,2.731
		c1.258,1.429,2.557,2.906,3.185,4.496c2.675,6.77-1.289,17.863-3.89,23.87c-3.671,8.476-17.711,23.269-30.51,26.257
		c-5.468,1.275-10.099,0.337-13.78-2.783c-8.966-7.6-18.474-21.553-24.847-31.388c-3.539-5.461-6.075-11.442-8.526-17.225
		c-0.777-1.828-1.552-3.659-2.362-5.48c-1.566-3.527-2.935-7.275-4.439-12.154c-0.245-0.796-0.462-1.66-0.686-2.548
		c-0.457-1.826-0.931-3.717-1.711-5.139c-0.659-1.203-0.979-1.937-1.172-2.389c-0.484-0.046-1.14-0.144-2.144-0.426
		c-2.697-0.758-7.431,0.255-11.235,1.071c-1.52,0.325-2.928,0.623-4.087,0.796c-4.441,0.652-8.863,1.407-13.285,2.163l-1.097,0.188
		c-3.474,0.589-6.946,1.155-10.429,1.667c-8.194,1.196-16.208,2.425-24.133,4.285l-1.261,0.296
		c-19.706,4.619-44.23,10.369-57.065,27.027c-9.051,11.743-10.545,28.242-11.863,42.797l-0.39,4.222
		c-0.072,0.751-0.207,1.739-0.363,2.882c-0.676,4.963-1.934,14.199,0.792,16.966c1.836,1.862,8.391,2.271,12.31,2.516
		c1.54,0.096,2.863,0.18,3.739,0.313l2.093,0.313l-1.306,1.665c-14.615,18.626-26.582,42.063-34.6,67.778
		c-4.662,14.952-7.299,29.18-8.062,43.494c-0.39,7.314-0.332,15.351,0.171,24.57c0.414,7.576,1.179,14.295,2.341,20.536
		c0.118,0.623,0.236,1.354,0.366,2.151c0.561,3.452,1.41,8.671,3.219,10.877c3.154,3.847,11.844,6.063,19.006,4.85
		c2.858-0.488,7.898-1.973,9.527-6.445c0.373-1.027-0.743-3.986-1.482-5.942c-0.479-1.268-0.931-2.464-1.157-3.426
		c-0.83-3.553-1.489-7.362-1.958-11.322c-1.609-13.629-1.027-28.694,1.833-47.413c4.626-30.255,17.252-60.84,37.523-90.908
		c0.233-0.346,0.491-0.767,0.765-1.22c0.731-1.198,1.559-2.557,2.459-3.44c2.514-2.476,3.265-2.601,5.993-2.129
		c0.534,0.091,1.176,0.204,1.982,0.306c1.812,0.229,3.628,0.445,5.444,0.652c6.277,0.722,12.503,0.895,19.035,0.532
		c0.414-0.024,0.974-0.113,1.583-0.207c2.12-0.33,3.695-0.524,4.771-0.017c3.053,1.434,3.568,5.62,3.984,8.986
		c0.094,0.763,0.183,1.492,0.296,2.144l0.351,2.033c1.051,6.14,2.045,11.938,4.725,17.413c5.372,10.985,13.951,13.302,26.428,15.578
		c1.626,0.298,3.267,0.609,4.917,0.924c8.132,1.547,16.542,3.149,24.669,3.154c37.759-0.002,78.289-1.191,120.468-3.532
		c2.276-0.128,4.607-0.224,6.972-0.32c14.382-0.589,29.252-1.2,40.879-8.685c9.361-6.022,10.53-20.962,11.56-34.141
		c0.361-4.602,0.7-8.947,1.374-12.616l0.233-1.261l1.251,0.284c10.559,2.389,22.523,1.973,34.093,1.571
		c3.354-0.115,6.645-0.231,9.823-0.272l1.232-0.017l0.017,1.232c0.399,30.007,0.885,57.092,2.829,84.694
		C759.489,489.469,760.921,503.822,762.304,517.701z"/>
	<path fill="#03566D" d="M552.581,488.279c0.568,0.142,1.215,0.32,1.915,0.512c3.079,0.849,7.292,2.011,9.667,1.463
		c0.907-0.209,2.218-1.391,3.375-2.435c0.883-0.794,1.715-1.547,2.548-2.076c5.146-3.279,10.571-4.131,16.14-4.778
		c7.073-0.818,15.294-1.528,23.259,0.467c1.896,0.474,3.717,1.345,5.478,2.187c2.319,1.109,4.508,2.158,6.614,2.206
		c4.699,0.106,10.566-2.817,13.78-4.391c10.201-4.985,10.809-16.056,11.399-26.764c0.034-0.613,0.067-1.222,0.103-1.831
		c-35.611,2.216-74.695,3.306-119.385,3.327c0.77,5.668,1.73,11.882,4.027,16.939C535.231,481.314,544.835,486.325,552.581,488.279z
		"/>
	<path fill="#03566D" d="M656.61,666.945c2.796,0.002,5.642,0.005,8.194-0.455c0.806-0.144,1.41-0.212,1.872-0.224
		c0.188-0.274,0.438-0.594,0.772-0.974c1.15-1.306,1.903-2.697,2.699-4.167c1.239-2.286,2.519-4.648,5.312-6.558
		c7.46-5.11,19.133-7.049,27.017-0.868c1.641,1.287,3.168,2.863,4.302,4.436c0.539,0.746,1.008,1.961,1.504,3.245
		c0.397,1.03,0.998,2.584,1.354,2.923c0.804,0.765,4.104,0.82,9.753-0.638c-7.174-15.289-7.504-34.956-6.967-50.519
		c0.462-13.285,1.518-28.343,8.067-40.251l-2.605-0.202c-13.371-1.039-27.2-2.112-40.829-2.141
		c-8.473,0.012-17.064,0.296-25.388,0.599c-10.913,0.397-22.198,0.804-33.318,0.481l-1.335-0.041l0.147-1.326
		c1.16-10.518,0.44-21.638-0.257-32.394c-0.281-4.352-0.573-8.851-0.731-13.203c-0.262-7.217-0.536-14.437-0.82-21.657
		c-0.034-0.84-0.024-1.795-0.017-2.791c0.019-1.994,0.038-4.253-0.318-5.87c-0.693-3.152-1.148-3.318-4.679-4.624
		c-8.271-3.058-17.738-1.828-26.086-0.739l-2.158,0.279c-1.256,0.108-7.328,2.909-10.258,4.679v0.551l-0.873,0.014
		c-0.948,0.902-0.496,4.612-0.245,6.657c0.113,0.929,0.217,1.783,0.245,2.461c0.173,3.828,0.178,7.718,0.183,11.478
		c0.005,3.508,0.01,7.136,0.152,10.687c0.219,5.55,0.255,11.274,0.291,16.809c0.063,10.013,0.128,20.367,1.282,30.229l0.202,1.739
		l-1.706-0.395c-4.631-1.073-10.316-0.354-15.816,0.342c-2.483,0.313-4.828,0.611-7.047,0.741
		c-7.027,0.414-14.163,0.532-21.065,0.647c-7.323,0.123-14.897,0.248-22.323,0.727c-4.083,0.262-8.237,0.409-12.258,0.551
		c-5.63,0.2-11.449,0.404-17.124,0.933c-13.179,1.229-17.755,17.692-19.27,31.287c-1.472,13.155,0.715,26.644,6.496,40.095
		l0.616,1.451c1.903,4.528,4.508,10.727,8.649,12.719c2.418,1.16,11.004,1.756,12.946,0.9c1.292-0.575,2.466-2.579,3.707-4.703
		c1.246-2.129,2.536-4.333,4.33-5.873c4.352-3.727,11.139-5.726,17.755-5.17c6.618,0.539,15.688,3.909,19.963,10.037
		c0.823,1.181,1.215,2.49,1.595,3.755c0.318,1.059,0.618,2.059,1.138,2.822c0.383,0.565,0.63,0.967,0.796,1.249
		c0.395,0.031,0.912,0.13,1.646,0.363c1.143,0.363,3.346,0.308,5.117,0.262c0.813-0.022,1.573-0.041,2.172-0.022
		c11.505,0.354,24.041,0.508,39.508,0.46c2.61-0.024,5.237-0.034,7.865-0.034c4.922,0,9.842,0.034,14.656,0.067
		c15.113,0.106,30.744,0.214,46.088-0.741C653.158,666.942,654.892,666.952,656.61,666.945z"/>
	<path fill="#03566D" d="M881.047,613.262c-0.534-12.707-1.21-24.161-4.071-35.69c-1.508-6.079-3.407-12.238-8.473-14.889
		c-3.994-2.088-10.249-2.329-15.274-2.519c-1.068-0.041-2.088-0.082-3.039-0.135l-1.061-0.06c-3.556-0.202-8.146-0.462-12.955-0.462
		c-9.423,0-19.687,1.001-24.657,5.411c-1.119,0.991-2.329,2.492-3.611,4.083c-2.247,2.786-4.795,5.942-8.18,8.242
		c-6.207,4.213-14.538,7.051-22.617,9.491c-1.403,0.426-2.897,0.703-4.34,0.97c-2.509,0.467-4.877,0.905-6.84,2.045
		c-3.556,2.059-4.424,5.425-5.343,10.321c-1.701,9.048-2.495,19.643-2.358,31.497l0.005,0.378
		c0.159,14.031,0.325,28.538,0.82,42.765c0.084,2.427,0.188,4.852,0.294,7.278c0.12,2.796,0.241,5.591,0.33,8.389
		c0.272,8.524,0.486,15.255,4.65,22.653c2.882,5.122,4.446,8.687,1.879,15.005c-4.559,11.194-3.577,24.821-2.216,35.442
		c0.813,6.349,1.901,11.791,7.02,14.059c0.751,0.332,1.872,0.589,3.058,0.864c2.781,0.64,5.935,1.366,7.318,3.635
		c0.686,1.126,0.832,2.476,0.44,4.015c-0.392,1.533-0.652,2.545-2.04,2.605c-0.147,0.007-0.344,0.014-0.878,0.409
		c-1.398,1.034-2.841,1.814-4.239,2.569c-3.549,1.917-6.351,3.433-7.039,8.151c-0.907,6.217,4.217,16.778,9.289,19.153
		c18.664,8.747,48.14-6.467,61.114-15.734c9.12-6.508,16.98-19.624,21.967-29.481c6.597-13.03,10.044-27.058,13.278-41.481
		C882.762,689.968,882.526,648.372,881.047,613.262z"/>
	<path fill="#03566D" d="M455.753,804.616c6.869-4.352,12.801-8.112,12.067-17.038c-0.084-1.003-0.476-2.067-0.893-3.19
		c-0.467-1.256-0.945-2.557-1.008-3.883c-0.029-0.589-0.075-0.953-0.106-1.198c-0.108-0.871-0.017-1.191,0.549-1.905
		c0.149-0.19,0.366-0.462,0.671-0.902c1.124-1.609,2.365-2.889,3.563-4.126c2.464-2.538,4.593-4.73,4.954-9.106
		c0.2-2.449-0.642-4.499-1.535-6.669c-0.618-1.506-1.261-3.063-1.571-4.809c-0.486-2.731,0.2-4.511,0.926-6.397
		c0.25-0.65,0.517-1.338,0.753-2.122c2.536-8.415-4.145-15.861-10.039-22.432c-1.537-1.713-2.99-3.332-4.275-4.944l-1.393-1.732
		c-4.395-5.444-9.375-11.618-10.316-18.515l-0.585-4.335c-1.783-13.292-3.467-25.848-7.282-38.534
		c-6.272-20.856-13.706-39.789-22.73-57.881l-1.001-2.021c-3.474-7.042-7.797-15.804-13.826-20.103
		c-3.777-2.692-9.399-5.004-12.404-3.945c-0.972,0.337-2.194,1.465-3.378,2.555c-1.018,0.938-2.069,1.905-3.099,2.495
		c-4.099,2.341-8.541,3.409-13.525,3.356c-4.193-0.067-7.917-0.895-11.382-2.529c-1.114-0.524-2.326-1.48-3.498-2.401
		c-1.198-0.945-2.557-2.014-3.419-2.257c-5.435-1.533-16.506,3.664-20.909,6.878c-11.644,8.505-15.26,19.898-11.379,35.856
		c1.585,6.52,3.243,13.025,4.901,19.528c1.48,5.808,2.957,11.615,4.386,17.435c0.712,2.904,1.419,5.834,2.129,8.776
		c3.883,16.114,7.898,32.779,13.699,48.123c6.628,17.772,12.659,35.991,18.493,53.608l0.392,1.188c0.346,1.049,0.683,2.12,1.02,3.2
		c2.524,8.062,5.132,16.398,13.624,18.563c2.139,0.544,4.725,0.467,7.227,0.385c0.888-0.029,1.783-0.058,2.666-0.058
		c2.858,0,5.598,0.298,7.602,1.857c1.715,1.333,3.204,3.443,4.648,5.485c0.876,1.241,1.703,2.413,2.5,3.289
		c5.904,6.493,12.888,10.713,22.643,13.687c11.803,3.592,18.096,4.456,28.817-2.394L455.753,804.616z"/>
	<path fill="#03566D" d="M702.275,793.177c0.284-12.178,0.426-23.502,0.433-34.619c0.012-21.19-0.053-40.504-0.2-59.045
		l-0.19-23.093c-0.01-1.145,0.029-2.264,0.067-3.358c0.137-3.933,0.255-7.33-1.963-10.448c-2.151-3.022-6.387-4.843-11.175-4.843
		c-0.25,0-0.503,0.005-0.755,0.014c-5.016,0.2-9.301,2.273-11.18,5.411l-0.402,0.659c-1.557,2.543-3.32,5.423-3.32,8.197
		c0,13.489-0.375,27.335-0.741,40.725c-0.342,12.647-0.698,25.723-0.739,38.534c-0.024,7.569,0.002,15.137,0.031,22.708
		c0.036,10.571,0.077,21.503-0.031,32.259c-0.087,8.702-0.147,17.404-0.188,26.105c-0.022,4.795,3.19,8.081,8.377,8.577
		c5.213,0.582,11.892,0.868,17.382-2.052c0.743-0.395,0.924-0.587,1.003-0.669c0.142-0.149,0.315-0.301,0.556-0.404
		c0.373-0.433,0.859-0.847,1.239-1.126c2.242-2.375,1.776-12.919,1.496-19.22c-0.108-2.449-0.202-4.566-0.164-6.024
		C701.976,805.369,702.133,799.273,702.275,793.177z"/>
	<path fill="#03566D" d="M527.337,690.298c0.325-5.774,0.659-11.74,0.168-17.274c-0.638-7.162-5.023-12.83-11.735-15.159
		c-2.059-0.715-4.184-1.061-6.284-1.061c-5.103,0-10.068,2.045-13.641,5.829c-2.788,2.781-2.408,9.262-2.103,14.471
		c0.091,1.559,0.176,3.022,0.176,4.278c0,25.02,1.018,50.476,1.999,75.097l0.587,14.844c0.433,11.363,0.763,20.916,0.96,30.619
		c0.07,3.409,0.13,6.818,0.19,10.225c0.113,6.392,0.224,12.782,0.399,19.174c0.024,0.868,0.022,1.667,0.019,2.408
		c-0.014,4.201-0.017,5.618,4.282,7.071c3.484,1.179,8.182,1.446,13.968,0.784c4.958-0.717,7.29-1.85,8.365-2.673
		c2.743-2.1,2.464-6.544,2.194-10.841c-0.079-1.251-0.154-2.466-0.152-3.582l0.002-45.506l-0.014-18.284
		c-0.024-19.954-0.048-40.588,0.217-60.881C526.977,696.721,527.159,693.457,527.337,690.298z"/>
	<path fill="#03566D" d="M726.104,659.778c2.023-2.738,3.46-6.221,4.857-9.606c0.534-1.297,1.059-2.565,1.6-3.758
		c4.177-9.178,6.096-16.266,6.414-23.702c0.471-10.992-0.452-31.299-11.529-46.206c-0.315,0.609-0.613,1.237-0.921,1.884
		c-0.241,0.503-0.481,1.008-0.731,1.506c-0.743,1.131-2.375,6.909-3.253,10.614c-2.95,11.745-2.887,25.865-2.435,38.129
		C720.332,634.866,721.374,649.852,726.104,659.778z"/>
	<path fill="#03566D" d="M748.889,939.423c-0.07-9.104-0.14-18.205-0.103-27.299c0.007-2.083,0.039-4.237,0.067-6.438
		c0.209-15.241,0.445-32.514-5.976-45.335c-3.772-7.535-11.295-13.109-20.642-15.291c-2.617-0.613-5.411-0.967-8.112-1.309
		c-1.258-0.159-2.512-0.315-3.748-0.5c-4.001-0.587-4.222-0.455-6.924,1.244c-0.486,0.306-1.042,0.654-1.696,1.049
		c-7.208,4.333-19.578,5.112-27.587,1.742c-1.451-0.611-2.969-2.076-4.436-3.493c-1.239-1.196-2.781-2.685-3.597-2.839
		c-0.125-0.024-0.257-0.036-0.399-0.036c-3.315,0-11.014,6.291-13.713,9.267c-7.066,7.795-8.29,19.321-9.474,30.465
		c-0.296,2.776-0.585,5.497-0.96,8.083c-3.652,25.124-5.593,50.469-5.938,77.481c-0.13,10.162-0.399,20.536-0.659,30.566
		c-0.669,25.744-1.359,52.333,0.236,78.328c13.229-13.915,33.335-14.002,51.181-14.081l3.416-0.019
		c3.623-0.026,7.229-0.115,10.831-0.204c6.722-0.166,13.677-0.337,20.589-0.087l2.779,0.091c8.274,0.255,16.809,0.52,24.467,4.934
		c0.943-9.274,0.265-18.905-0.395-28.234c-0.601-8.526-1.225-17.341-0.621-25.901C749.26,987.608,749.07,963.112,748.889,939.423z"
		/>
	<path fill="#03566D" d="M569.747,977.129c-0.284-34.711-3.195-69.097-6.01-102.352l-0.06-0.707
		c-0.95-11.281-2.132-25.321-13.448-29.392c-3.238-1.164-6.363-1.91-9.291-2.216c-5.68-0.589-7.299,0.2-12.012,3.036
		c-8.199,4.939-21.623,5.885-30.563,2.146c-1.629-0.678-2.812-1.354-3.856-1.949c-1.672-0.953-2.8-1.597-4.737-1.597
		c-0.729,0-1.573,0.091-2.605,0.294c-5.011,0.972-8.464,3.077-11.548,7.037c-5.163,6.635-8.047,15.335-10.398,23.75
		c-5.023,18.003-8.103,37.138-9.416,58.497l-0.515,8.273c-1.28,20.387-2.603,41.464-2.389,62.284
		c0.067,6.628,0.183,13.263,0.298,19.896c0.272,15.58,0.553,31.689,0.176,47.522c-0.048,2.172,0.07,4.407,0.204,6.592
		c12.895-19.448,32.817-22.063,53.83-23.1c20.974-1.042,48.073,4.068,63.325,21.154c-0.128-13.585-0.272-27.171-0.416-40.759
		C570.11,1016.069,569.903,996.601,569.747,977.129z"/>
	<path fill="#03566D" d="M748.081,1089.818c-0.077-2.986-0.154-5.969-0.152-8.954c0-0.84,0.031-1.571,0.06-2.225
		c0.113-2.548,0.149-3.407-1.804-5.18c-2.293-2.081-6.051-3.491-11.168-4.196c-10.768-1.484-21.91-1.121-32.685-0.772
		c-4.169,0.137-8.331,0.272-12.474,0.306c-1.768,0.014-3.556,0.007-5.358,0.007c-0.847-0.002-1.694-0.005-2.543-0.005
		c-13.65,0-27.529,0.479-38.312,9.13c-6.087,4.889-8.146,9.399-7.86,17.238c0.034,0.919-0.017,2.098-0.075,3.373
		c-0.113,2.569-0.255,5.764,0.387,7.415l0.067,0.24c1.095,6.436,6.594,12.06,11.444,17.021c1.075,1.097,2.122,2.17,3.094,3.219
		c1.78,1.92,3.587,4.047,5.336,6.104c3.763,4.427,7.655,9.007,11.909,12.359c5.483,4.318,15.873,4.588,23.461,4.785
		c1.47,0.038,2.853,0.075,4.107,0.135c9.26,0.445,18.777-0.005,27.977-0.438l3.395-0.159c10.622-0.488,17.225-1.33,19.109-12.058
		c2.293-13.037,2.36-26.521,2.225-40.34C748.201,1094.488,748.141,1092.152,748.081,1089.818z"/>
	<path fill="#03566D" d="M566.679,1083.602l0.004-0.024l-0.829-1.013c-8.885-10.701-21.063-14.892-36.614-17.89
		c-7.047-1.357-12.654-1.925-18.111-1.826c-5.461,0.096-14.538,0.77-17.341,1.287l-0.058,0.01c-2.107,0.289-4.22,0.565-6.33,0.835
		c-8.307,0.767-18.936,6.606-24.241,13.292c-2.827,3.248-6.301,8.444-7.766,12.83c-1.8,5.382-0.674,12.58,0.32,18.929
		c0.303,1.937,0.597,3.813,0.804,5.569c0.077,0.801,0.14,1.619,0.202,2.464c0.334,4.41,0.71,9.407,3.558,12.392
		c4.508,4.725,14.177,4.494,21.231,4.338c1.27-0.029,2.471-0.058,3.568-0.058c0.034,0,0.067,0,0.101,0
		c4.617,0.007,9.676,0.455,15.031,0.929c14.454,1.275,30.837,2.723,41.5-4.816c9.029-6.385,17.264-16.67,21.96-24.166
		c2.353-3.755,4.773-7.756,6.231-11.76c1.7-4.673-0.029-7.405-2.901-10.956L566.679,1083.602z"/>
</g>
</svg>
