<?xml version="1.0" standalone="no"?><!DOCTYPE svg PUBLIC "-//W3C//DTD SVG 1.1//EN" "http://www.w3.org/Graphics/SVG/1.1/DTD/svg11.dtd"><svg t="1725655146612" class="icon" viewBox="0 0 1024 1024" version="1.1" xmlns="http://www.w3.org/2000/svg" p-id="6469" xmlns:xlink="http://www.w3.org/1999/xlink" width="200" height="200"><path d="M170.389148 663.774609L46.52967 983.218087a29.295304 29.295304 0 0 0 3.472695 27.737043 31.343304 31.343304 0 0 0 25.510957 13.04487h433.908869a31.387826 31.387826 0 0 0 25.822609-13.356522 29.117217 29.117217 0 0 0 2.80487-28.137739l-41.627827-99.328c-94.252522-22.171826-186.991304-74.48487-264.236521-149.593043a605.985391 605.985391 0 0 1-61.796174-69.810087zM174.084452 282.312348c-35.617391 46.436174-48.350609 109.211826-35.795478 179.956869 15.315478 86.416696 66.025739 173.545739 142.692174 245.403826 76.621913 71.902609 169.627826 119.318261 261.609739 133.832348 75.50887 11.753739 142.380522-0.133565 191.888696-33.613913L174.084452 282.267826zM609.507061 133.565217c-17.007304 0-30.898087 12.911304-30.898087 28.983653 0 16.11687 13.890783 29.028174 30.898087 29.028173 96.166957 0 174.525217 73.416348 174.525217 163.661914 0 15.983304 13.801739 28.983652 30.942609 28.983652 17.051826 0 30.942609-12.911304 30.942609-28.983652C845.917496 232.937739 739.77767 133.565217 609.507061 133.565217z" fill="#3B85FF" p-id="6470"></path><path d="M609.863235 0a31.031652 31.031652 0 1 0 0 62.152348 307.823304 307.823304 0 0 1 307.511652 307.46713 31.031652 31.031652 0 1 0 62.107826 0C979.39367 165.888 813.639235 0 609.863235 0zM555.190539 462.447304c15.003826 7.880348 32.100174 12.332522 50.309565 12.332522 58.946783 0 106.852174-46.525217 106.852174-103.824696S664.446887 267.130435 605.500104 267.130435c-58.946783 0-106.852174 46.525217-106.852174 103.824695 0 17.719652 4.541217 34.281739 12.733218 48.973913l-39.535305 38.37774 43.809392 42.562782 39.490782-38.422261z" fill="#09B39D" p-id="6471"></path></svg>