<?xml version="1.0" standalone="no"?><!DOCTYPE svg PUBLIC "-//W3C//DTD SVG 1.1//EN" "http://www.w3.org/Graphics/SVG/1.1/DTD/svg11.dtd"><svg t="1717917328875" class="icon" viewBox="0 0 1024 1024" version="1.1" xmlns="http://www.w3.org/2000/svg" p-id="6018" xmlns:xlink="http://www.w3.org/1999/xlink" width="200" height="200"><path d="M879.162 929.262h-734.197c-13.261 0-24.010-10.749-24.010-24.010v-160.838c0-13.261 10.75-24.010 24.010-24.010s24.010 10.749 24.010 24.010v136.827h686.175v-136.827c0-13.261 10.749-24.010 24.010-24.010s24.010 10.749 24.010 24.010v160.838c0.001 13.261-10.748 24.010-24.009 24.010zM513.242 768.423c-6.016 0-12.030-2.248-16.683-6.743l-210.744-203.6c-9.537-9.214-9.799-24.413-0.585-33.952 9.215-9.538 24.415-9.798 33.953-0.585l194.060 187.482 194.060-187.482c9.536-9.214 24.737-8.951 33.952 0.585 9.214 9.537 8.951 24.738-0.584 33.952l-210.745 203.6c-4.652 4.494-10.667 6.743-16.682 6.743zM513.242 768.423c-13.261 0-24.010-10.749-24.010-24.010v-625.829c0-13.261 10.749-24.010 24.010-24.010s24.010 10.75 24.010 24.010v625.829c0 13.261-10.749 24.010-24.010 24.010z" fill="#272636" p-id="6019"></path></svg>